{
	"asset":{
		"generator":"Khronos glTF Blender I/O v4.1.62",
		"version":"2.0"
	},
	"scene":0,
	"scenes":[
		{
			"name":"Scene",
			"nodes":[
				0
			]
		}
	],
	"nodes":[
		{
			"mesh":0,
			"name":"Cube.026",
			"translation":[
				0,
				1.399999976158142,
				0
			]
		}
	],
	"materials":[
		{
			"doubleSided":true,
			"name":"lambert2",
			"normalTexture":{
				"index":0
			},
			"occlusionTexture":{
				"index":1
			},
			"pbrMetallicRoughness":{
				"baseColorTexture":{
					"index":2
				},
				"metallicRoughnessTexture":{
					"index":1
				},
				"roughnessFactor":0.6000000238418579
			}
		}
	],
	"meshes":[
		{
			"name":"Cube.687",
			"primitives":[
				{
					"attributes":{
						"POSITION":0,
						"NORMAL":1,
						"TEXCOORD_0":2,
						"TEXCOORD_1":3,
						"TEXCOORD_2":4
					},
					"indices":5,
					"material":0
				}
			]
		}
	],
	"textures":[
		{
			"sampler":0,
			"source":0
		},
		{
			"sampler":0,
			"source":1
		},
		{
			"sampler":0,
			"source":2
		}
	],
	"images":[
		{
			"mimeType":"image/png",
			"name":"Image_2-5",
			"uri":"Image_2-5.png"
		},
		{
			"mimeType":"image/png",
			"name":"Image_1-6",
			"uri":"Image_1-6.png"
		},
		{
			"mimeType":"image/png",
			"name":"Image_0-3",
			"uri":"Image_0-3.png"
		}
	],
	"accessors":[
		{
			"bufferView":0,
			"componentType":5126,
			"count":2755,
			"max":[
				0.6845976710319519,
				1.4518661499023438,
				0.62129807472229
			],
			"min":[
				-0.6777248382568359,
				-1.3957524299621582,
				-0.8833658695220947
			],
			"type":"VEC3"
		},
		{
			"bufferView":1,
			"componentType":5126,
			"count":2755,
			"type":"VEC3"
		},
		{
			"bufferView":2,
			"componentType":5126,
			"count":2755,
			"type":"VEC2"
		},
		{
			"bufferView":3,
			"componentType":5126,
			"count":2755,
			"type":"VEC2"
		},
		{
			"bufferView":4,
			"componentType":5126,
			"count":2755,
			"type":"VEC2"
		},
		{
			"bufferView":5,
			"componentType":5123,
			"count":7473,
			"type":"SCALAR"
		}
	],
	"bufferViews":[
		{
			"buffer":0,
			"byteLength":33060,
			"byteOffset":0,
			"target":34962
		},
		{
			"buffer":0,
			"byteLength":33060,
			"byteOffset":33060,
			"target":34962
		},
		{
			"buffer":0,
			"byteLength":22040,
			"byteOffset":66120,
			"target":34962
		},
		{
			"buffer":0,
			"byteLength":22040,
			"byteOffset":88160,
			"target":34962
		},
		{
			"buffer":0,
			"byteLength":22040,
			"byteOffset":110200,
			"target":34962
		},
		{
			"buffer":0,
			"byteLength":14946,
			"byteOffset":132240,
			"target":34963
		}
	],
	"samplers":[
		{
			"magFilter":9729,
			"minFilter":9987
		}
	],
	"buffers":[
		{
			"byteLength":147188,
			"uri":"chair.bin"
		}
	]
}
