{
	"asset":{
		"generator":"Khronos glTF Blender I/O v4.1.62",
		"version":"2.0"
	},
	"scene":0,
	"scenes":[
		{
			"name":"Scene",
			"nodes":[
				0
			]
		}
	],
	"nodes":[
		{
			"mesh":0,
			"name":"Object_2.108",
			"rotation":[
				1,
				0,
				0,
				0
			]
		}
	],
	"materials":[
		{
			"doubleSided":true,
			"name":"Wolf3D_Body",
			"pbrMetallicRoughness":{
				"baseColorTexture":{
					"index":0
				},
				"metallicFactor":0
			}
		},
		{
			"doubleSided":true,
			"emissiveFactor":[
				1,
				1,
				1
			],
			"emissiveTexture":{
				"index":1
			},
			"name":"Glock_Mat4",
			"normalTexture":{
				"index":2
			},
			"pbrMetallicRoughness":{
				"baseColorTexture":{
					"index":3
				},
				"metallicRoughnessTexture":{
					"index":4
				}
			}
		}
	],
	"meshes":[
		{
			"name":"Object_0.108",
			"primitives":[
				{
					"attributes":{
						"POSITION":0,
						"NORMAL":1,
						"TEXCOORD_0":2
					},
					"indices":3,
					"material":0
				},
				{
					"attributes":{
						"POSITION":4,
						"NORMAL":5,
						"TEXCOORD_0":6
					},
					"indices":7,
					"material":1
				}
			]
		}
	],
	"textures":[
		{
			"sampler":0,
			"source":0
		},
		{
			"sampler":0,
			"source":1
		},
		{
			"sampler":0,
			"source":2
		},
		{
			"sampler":0,
			"source":3
		},
		{
			"sampler":0,
			"source":4
		}
	],
	"images":[
		{
			"mimeType":"image/png",
			"name":"Wolf3D_Body_baseColor",
			"uri":"Wolf3D_Body_baseColor.png"
		},
		{
			"mimeType":"image/png",
			"name":"Glock_Mat4_emissive",
			"uri":"Glock_Mat4_emissive.png"
		},
		{
			"mimeType":"image/png",
			"name":"Glock_Mat4_normal",
			"uri":"Glock_Mat4_normal.png"
		},
		{
			"mimeType":"image/png",
			"name":"Glock_Mat4_baseColor",
			"uri":"Glock_Mat4_baseColor.png"
		},
		{
			"mimeType":"image/png",
			"name":"Glock_Mat4_metallicRoughness",
			"uri":"Glock_Mat4_metallicRoughness.png"
		}
	],
	"accessors":[
		{
			"bufferView":0,
			"componentType":5126,
			"count":21700,
			"max":[
				0.14843928813934326,
				0.16988718509674072,
				0.2074756771326065
			],
			"min":[
				-0.15231819450855255,
				-0.08106784522533417,
				-0.440987229347229
			],
			"type":"VEC3"
		},
		{
			"bufferView":1,
			"componentType":5126,
			"count":21700,
			"type":"VEC3"
		},
		{
			"bufferView":2,
			"componentType":5126,
			"count":21700,
			"type":"VEC2"
		},
		{
			"bufferView":3,
			"componentType":5123,
			"count":124518,
			"type":"SCALAR"
		},
		{
			"bufferView":4,
			"componentType":5126,
			"count":12262,
			"max":[
				0.0218957606703043,
				0.2249375581741333,
				-0.2817456126213074
			],
			"min":[
				-0.02288682386279106,
				0.04141542315483093,
				-0.5365812182426453
			],
			"type":"VEC3"
		},
		{
			"bufferView":5,
			"componentType":5126,
			"count":12262,
			"type":"VEC3"
		},
		{
			"bufferView":6,
			"componentType":5126,
			"count":12262,
			"type":"VEC2"
		},
		{
			"bufferView":7,
			"componentType":5123,
			"count":27090,
			"type":"SCALAR"
		}
	],
	"bufferViews":[
		{
			"buffer":0,
			"byteLength":260400,
			"byteOffset":0,
			"target":34962
		},
		{
			"buffer":0,
			"byteLength":260400,
			"byteOffset":260400,
			"target":34962
		},
		{
			"buffer":0,
			"byteLength":173600,
			"byteOffset":520800,
			"target":34962
		},
		{
			"buffer":0,
			"byteLength":249036,
			"byteOffset":694400,
			"target":34963
		},
		{
			"buffer":0,
			"byteLength":147144,
			"byteOffset":943436,
			"target":34962
		},
		{
			"buffer":0,
			"byteLength":147144,
			"byteOffset":1090580,
			"target":34962
		},
		{
			"buffer":0,
			"byteLength":98096,
			"byteOffset":1237724,
			"target":34962
		},
		{
			"buffer":0,
			"byteLength":54180,
			"byteOffset":1335820,
			"target":34963
		}
	],
	"samplers":[
		{
			"magFilter":9729,
			"minFilter":9987
		}
	],
	"buffers":[
		{
			"byteLength":1390000,
			"uri":"gunHand.bin"
		}
	]
}
