{
	"asset":{
		"generator":"Khronos glTF Blender I/O v4.1.62",
		"version":"2.0"
	},
	"scene":0,
	"scenes":[
		{
			"name":"Scene",
			"nodes":[
				1,
				32
			]
		}
	],
	"nodes":[
		{
			"name":"Armature",
			"rotation":[
				-0.70710688829422,
				0,
				0,
				0.7071066498756409
			],
			"scale":[
				100,
				99.99999237060547,
				99.99999237060547
			]
		},
		{
			"children":[
				0
			],
			"name":"RootNode"
		},
		{
			"name":"spine.006",
			"rotation":[
				-0.20001597702503204,
				-2.3360074408174114e-07,
				-1.8129927084348935e-15,
				0.9797926545143127
			],
			"scale":[
				1,
				1.0000001192092896,
				1.0000001192092896
			],
			"translation":[
				8.375552414975878e-15,
				0.062147773802280426,
				-3.166496753692627e-08
			]
		},
		{
			"children":[
				2
			],
			"name":"spine.005",
			"rotation":[
				0.05857635661959648,
				1.1900458218860877e-07,
				6.982850742076607e-09,
				0.9982829093933105
			],
			"scale":[
				1,
				0.9999999403953552,
				0.9999998807907104
			],
			"translation":[
				1.3234889800848443e-23,
				0.05618142709136009,
				4.6100467443466187e-08
			]
		},
		{
			"children":[
				3
			],
			"name":"spine.004",
			"rotation":[
				0.16162173449993134,
				1.1764201701680577e-07,
				-1.9266808592988127e-08,
				0.986852765083313
			],
			"scale":[
				1,
				0.9999999403953552,
				1
			],
			"translation":[
				-2.220446049250313e-15,
				0.2263074368238449,
				-5.587935447692871e-09
			]
		},
		{
			"name":"hand.L",
			"rotation":[
				0.010476211085915565,
				-0.10280302166938782,
				-0.20628374814987183,
				0.9730204343795776
			],
			"scale":[
				0.9999999403953552,
				1,
				1
			],
			"translation":[
				-8.987262845039368e-08,
				0.28004539012908936,
				8.195638656616211e-08
			]
		},
		{
			"children":[
				5
			],
			"name":"forearm.L",
			"rotation":[
				0.21385720372200012,
				0.13263772428035736,
				0.03357274457812309,
				0.9672358632087708
			],
			"scale":[
				0.9999999403953552,
				0.9999999403953552,
				0.9999999403953552
			],
			"translation":[
				6.51925802230835e-09,
				0.2753213346004486,
				-1.3504177331924438e-08
			]
		},
		{
			"children":[
				6
			],
			"name":"upper_arm.L",
			"rotation":[
				-0.2966669201850891,
				0.6434250473976135,
				-0.5111292004585266,
				0.48655927181243896
			],
			"scale":[
				1,
				0.9999999403953552,
				0.9999998807907104
			],
			"translation":[
				-0.007583556696772575,
				0.20750653743743896,
				-0.002943628001958132
			]
		},
		{
			"children":[
				7
			],
			"name":"shoulder.L",
			"rotation":[
				-0.5972170829772949,
				-0.3413202166557312,
				-0.3604899048805237,
				0.6299836039543152
			],
			"scale":[
				1,
				0.9999999403953552,
				0.9999999403953552
			],
			"translation":[
				0.018300021067261696,
				0.1351935714483261,
				0.081704281270504
			]
		},
		{
			"name":"hand.R",
			"rotation":[
				0.010476176626980305,
				0.1028030514717102,
				0.20628371834754944,
				0.9730204939842224
			],
			"scale":[
				0.9999998211860657,
				1,
				1.0000001192092896
			],
			"translation":[
				6.379559636116028e-08,
				0.2800453007221222,
				1.862645149230957e-08
			]
		},
		{
			"children":[
				9
			],
			"name":"forearm.R",
			"rotation":[
				0.21385717391967773,
				-0.13263766467571259,
				-0.033572740852832794,
				0.9672358632087708
			],
			"scale":[
				1,
				1,
				0.9999999403953552
			],
			"translation":[
				-1.955777406692505e-08,
				0.27532121539115906,
				1.5832483768463135e-08
			]
		},
		{
			"children":[
				10
			],
			"name":"upper_arm.R",
			"rotation":[
				-0.2966669797897339,
				-0.6434251070022583,
				0.5111291408538818,
				0.4865592122077942
			],
			"scale":[
				1,
				0.9999997019767761,
				0.9999997615814209
			],
			"translation":[
				0.007583559490740299,
				0.20750653743743896,
				-0.002943870611488819
			]
		},
		{
			"children":[
				11
			],
			"name":"shoulder.R",
			"rotation":[
				-0.5972170233726501,
				0.3413204252719879,
				0.3604900538921356,
				0.6299834847450256
			],
			"scale":[
				1.0000001192092896,
				1,
				1.0000001192092896
			],
			"translation":[
				-0.01829998381435871,
				0.1351935714483261,
				0.08170429617166519
			]
		},
		{
			"name":"breast.L",
			"rotation":[
				-1.0083675761052291e-07,
				-0.6877899169921875,
				-0.7259098291397095,
				5.192669760845092e-08
			],
			"scale":[
				1,
				0.9999994039535522,
				0.9999998807907104
			],
			"translation":[
				0.11840000003576279,
				-0.0037954975850880146,
				-0.04286687448620796
			]
		},
		{
			"name":"breast.R",
			"rotation":[
				-1.0083675761052291e-07,
				-0.6877899169921875,
				-0.7259098291397095,
				5.192669760845092e-08
			],
			"scale":[
				1,
				0.9999994039535522,
				0.9999998807907104
			],
			"translation":[
				-0.11840001493692398,
				-0.0037952593993395567,
				-0.04286680370569229
			]
		},
		{
			"children":[
				4,
				8,
				12,
				13,
				14
			],
			"name":"spine.003",
			"rotation":[
				-0.01104883011430502,
				-1.19201992276885e-07,
				1.317123299315881e-09,
				0.99993896484375
			],
			"scale":[
				1,
				0.9999999403953552,
				1.0000001192092896
			],
			"translation":[
				0,
				0.17288750410079956,
				-4.656612873077393e-10
			]
		},
		{
			"children":[
				15
			],
			"name":"spine.002",
			"rotation":[
				-0.07746415585279465,
				0,
				0,
				0.9969951510429382
			],
			"scale":[
				0.9999999403953552,
				0.9999999403953552,
				0.9999999403953552
			],
			"translation":[
				0,
				0.13663677871227264,
				-1.2310920283198357e-08
			]
		},
		{
			"children":[
				16
			],
			"name":"spine.001",
			"rotation":[
				-0.0644763931632042,
				0,
				0,
				0.9979192614555359
			],
			"scale":[
				0.9999999403953552,
				0.9999999403953552,
				0.9999999403953552
			],
			"translation":[
				0,
				0.15221941471099854,
				1.6763806343078613e-08
			]
		},
		{
			"name":"pelvis.L",
			"rotation":[
				-0.1524551957845688,
				-0.7933306097984314,
				-0.28550398349761963,
				0.5156272053718567
			],
			"scale":[
				0.9999999403953552,
				1.0000001192092896,
				0.9999998807907104
			],
			"translation":[
				0,
				-3.725290298461914e-08,
				1.1175870895385742e-08
			]
		},
		{
			"name":"pelvis.R",
			"rotation":[
				-0.1524551957845688,
				0.7933306097984314,
				0.28550398349761963,
				0.5156272053718567
			],
			"scale":[
				0.9999999403953552,
				1.0000001192092896,
				0.9999998807907104
			],
			"translation":[
				0,
				-3.725290298461914e-08,
				1.1175870895385742e-08
			]
		},
		{
			"name":"toe.L",
			"rotation":[
				-0.026636168360710144,
				-0.9939066767692566,
				0.10672508925199509,
				0.007058457471430302
			],
			"scale":[
				1,
				0.9999997615814209,
				1
			],
			"translation":[
				8.96397978067398e-09,
				0.15470294654369354,
				-3.14321368932724e-09
			]
		},
		{
			"name":"heel.02.L",
			"rotation":[
				0.7209004163742065,
				0.6833180785179138,
				-0.08678282052278519,
				0.07647032290697098
			],
			"scale":[
				1,
				1,
				0.9999998807907104
			],
			"translation":[
				-0.048023875802755356,
				-0.03775734454393387,
				0.06343284994363785
			]
		},
		{
			"children":[
				20,
				21
			],
			"name":"foot.L",
			"rotation":[
				-0.6620050668716431,
				-0.009126750752329826,
				0.05010777711868286,
				0.7477668523788452
			],
			"scale":[
				0.9999999403953552,
				0.9999999403953552,
				0.9999998807907104
			],
			"translation":[
				1.2281816452741623e-08,
				0.5820335149765015,
				5.235051503404975e-09
			]
		},
		{
			"children":[
				22
			],
			"name":"shin.L",
			"rotation":[
				0.03549627587199211,
				0.009228634648025036,
				0.014715840108692646,
				0.9992188215255737
			],
			"scale":[
				0.9999999403953552,
				0.9999998807907104,
				1.0000001192092896
			],
			"translation":[
				-2.584420144557953e-08,
				0.42366600036621094,
				-3.026798367500305e-09
			]
		},
		{
			"children":[
				23
			],
			"name":"thigh.L",
			"rotation":[
				0.9928608536720276,
				0.05009458214044571,
				-0.011420303024351597,
				0.10764526575803757
			],
			"scale":[
				0.9999992251396179,
				0.9999998211860657,
				0.999996542930603
			],
			"translation":[
				0.09799998998641968,
				0.07081840187311172,
				0.025942280888557434
			]
		},
		{
			"name":"toe.R",
			"rotation":[
				-0.026636168360710144,
				0.9939066767692566,
				-0.10672508925199509,
				0.007058457471430302
			],
			"scale":[
				1,
				0.9999997615814209,
				1
			],
			"translation":[
				-8.96397978067398e-09,
				0.15470294654369354,
				-3.14321368932724e-09
			]
		},
		{
			"name":"heel.02.R",
			"rotation":[
				0.7209004163742065,
				-0.6833180785179138,
				0.08678282052278519,
				0.07647032290697098
			],
			"scale":[
				1,
				1,
				0.9999998807907104
			],
			"translation":[
				0.048023875802755356,
				-0.03775734454393387,
				0.06343284994363785
			]
		},
		{
			"children":[
				25,
				26
			],
			"name":"foot.R",
			"rotation":[
				-0.6620050668716431,
				0.009126750752329826,
				-0.05010777711868286,
				0.7477668523788452
			],
			"scale":[
				0.9999999403953552,
				0.9999999403953552,
				0.9999998807907104
			],
			"translation":[
				-1.2281816452741623e-08,
				0.5820335149765015,
				5.235051503404975e-09
			]
		},
		{
			"children":[
				27
			],
			"name":"shin.R",
			"rotation":[
				0.03549627587199211,
				-0.009228634648025036,
				-0.014715840108692646,
				0.9992188215255737
			],
			"scale":[
				0.9999999403953552,
				0.9999998807907104,
				1.0000001192092896
			],
			"translation":[
				2.584420144557953e-08,
				0.42366600036621094,
				-3.026798367500305e-09
			]
		},
		{
			"children":[
				28
			],
			"name":"thigh.R",
			"rotation":[
				0.9928608536720276,
				-0.05009458214044571,
				0.011420303024351597,
				0.10764526575803757
			],
			"scale":[
				0.9999992251396179,
				0.9999998211860657,
				0.999996542930603
			],
			"translation":[
				-0.09799998998641968,
				0.07081840187311172,
				0.025942280888557434
			]
		},
		{
			"children":[
				17,
				18,
				19,
				24,
				29
			],
			"name":"spine",
			"rotation":[
				0.1258196234703064,
				0,
				0,
				0.9920531511306763
			],
			"scale":[
				0.9999999403953552,
				0.9999998807907104,
				0.9999998211860657
			],
			"translation":[
				0,
				1.0098998546600342,
				-0.05519999563694
			]
		},
		{
			"mesh":0,
			"name":"Object_74",
			"skin":0
		},
		{
			"children":[
				31,
				30
			],
			"name":"metarig",
			"scale":[
				0.9161146879196167,
				0.9161146879196167,
				0.9161146879196167
			]
		}
	],
	"materials":[
		{
			"doubleSided":true,
			"name":"Wolf3D_Avatar",
			"normalTexture":{
				"index":0
			},
			"pbrMetallicRoughness":{
				"baseColorTexture":{
					"index":1
				},
				"metallicFactor":0,
				"roughnessFactor":0.9618089199066162
			}
		}
	],
	"meshes":[
		{
			"name":"0",
			"primitives":[
				{
					"attributes":{
						"POSITION":0,
						"NORMAL":1,
						"TEXCOORD_0":2,
						"TEXCOORD_1":3,
						"JOINTS_0":4,
						"WEIGHTS_0":5
					},
					"indices":6,
					"material":0
				}
			]
		}
	],
	"textures":[
		{
			"sampler":0,
			"source":0
		},
		{
			"sampler":0,
			"source":1
		}
	],
	"images":[
		{
			"mimeType":"image/png",
			"name":"Wolf3D_Avatar_normal",
			"uri":"Wolf3D_Avatar_normal.png"
		},
		{
			"mimeType":"image/jpeg",
			"name":"Wolf3D_Avatar_baseColor",
			"uri":"Wolf3D_Avatar_baseColor.jpg"
		}
	],
	"skins":[
		{
			"inverseBindMatrices":7,
			"joints":[
				30,
				17,
				16,
				15,
				4,
				3,
				2,
				8,
				7,
				6,
				5,
				12,
				11,
				10,
				9,
				13,
				14,
				18,
				19,
				24,
				23,
				22,
				20,
				21,
				29,
				28,
				27,
				25,
				26
			],
			"name":"metarig"
		}
	],
	"accessors":[
		{
			"bufferView":0,
			"componentType":5126,
			"count":2833,
			"max":[
				0.3812900185585022,
				1.853624939918518,
				0.19937653839588165
			],
			"min":[
				-0.38129061460494995,
				-0.0037079816684126854,
				-0.132679283618927
			],
			"type":"VEC3"
		},
		{
			"bufferView":1,
			"componentType":5126,
			"count":2833,
			"type":"VEC3"
		},
		{
			"bufferView":2,
			"componentType":5126,
			"count":2833,
			"type":"VEC2"
		},
		{
			"bufferView":3,
			"componentType":5126,
			"count":2833,
			"type":"VEC2"
		},
		{
			"bufferView":4,
			"componentType":5121,
			"count":2833,
			"type":"VEC4"
		},
		{
			"bufferView":5,
			"componentType":5126,
			"count":2833,
			"type":"VEC4"
		},
		{
			"bufferView":6,
			"componentType":5123,
			"count":13293,
			"type":"SCALAR"
		},
		{
			"bufferView":7,
			"componentType":5126,
			"count":29,
			"type":"MAT4"
		}
	],
	"bufferViews":[
		{
			"buffer":0,
			"byteLength":33996,
			"byteOffset":0,
			"target":34962
		},
		{
			"buffer":0,
			"byteLength":33996,
			"byteOffset":33996,
			"target":34962
		},
		{
			"buffer":0,
			"byteLength":22664,
			"byteOffset":67992,
			"target":34962
		},
		{
			"buffer":0,
			"byteLength":22664,
			"byteOffset":90656,
			"target":34962
		},
		{
			"buffer":0,
			"byteLength":11332,
			"byteOffset":113320,
			"target":34962
		},
		{
			"buffer":0,
			"byteLength":45328,
			"byteOffset":124652,
			"target":34962
		},
		{
			"buffer":0,
			"byteLength":26586,
			"byteOffset":169980,
			"target":34963
		},
		{
			"buffer":0,
			"byteLength":1856,
			"byteOffset":196568
		}
	],
	"samplers":[
		{
			"magFilter":9729,
			"minFilter":9987
		}
	],
	"buffers":[
		{
			"byteLength":198424,
			"uri":"player.bin"
		}
	]
}
