{
	"asset":{
		"generator":"Khronos glTF Blender I/O v4.1.62",
		"version":"2.0"
	},
	"scene":0,
	"scenes":[
		{
			"name":"Scene",
			"nodes":[
				0
			]
		}
	],
	"nodes":[
		{
			"mesh":0,
			"name":"Object_74",
			"rotation":[
				0,
				-1,
				0,
				4.371138828673793e-08
			],
			"scale":[
				1.8138943910598755,
				1.8138943910598755,
				1.8138943910598755
			]
		}
	],
	"materials":[
		{
			"doubleSided":true,
			"name":"lambert2",
			"normalTexture":{
				"index":0
			},
			"occlusionTexture":{
				"index":1
			},
			"pbrMetallicRoughness":{
				"baseColorTexture":{
					"index":2
				},
				"metallicRoughnessTexture":{
					"index":1
				},
				"roughnessFactor":0.6000000238418579
			}
		}
	],
	"meshes":[
		{
			"name":"0",
			"primitives":[
				{
					"attributes":{
						"POSITION":0,
						"NORMAL":1,
						"TEXCOORD_0":2,
						"TEXCOORD_1":3,
						"TEXCOORD_2":4
					},
					"indices":5,
					"material":0
				}
			]
		}
	],
	"textures":[
		{
			"sampler":0,
			"source":0
		},
		{
			"sampler":0,
			"source":1
		},
		{
			"sampler":0,
			"source":2
		}
	],
	"images":[
		{
			"mimeType":"image/png",
			"name":"Image_2-5",
			"uri":"Image_2-5.png"
		},
		{
			"mimeType":"image/png",
			"name":"Image_1-6",
			"uri":"Image_1-6.png"
		},
		{
			"mimeType":"image/png",
			"name":"Image_0-3",
			"uri":"Image_0-3.png"
		}
	],
	"accessors":[
		{
			"bufferView":0,
			"componentType":5126,
			"count":2764,
			"max":[
				0.37494200468063354,
				1.571719765663147,
				0.37086474895477295
			],
			"min":[
				-0.3757342994213104,
				0.00182723393663764,
				-0.4407571852207184
			],
			"type":"VEC3"
		},
		{
			"bufferView":1,
			"componentType":5126,
			"count":2764,
			"type":"VEC3"
		},
		{
			"bufferView":2,
			"componentType":5126,
			"count":2764,
			"type":"VEC2"
		},
		{
			"bufferView":3,
			"componentType":5126,
			"count":2764,
			"type":"VEC2"
		},
		{
			"bufferView":4,
			"componentType":5126,
			"count":2764,
			"type":"VEC2"
		},
		{
			"bufferView":5,
			"componentType":5123,
			"count":7473,
			"type":"SCALAR"
		}
	],
	"bufferViews":[
		{
			"buffer":0,
			"byteLength":33168,
			"byteOffset":0,
			"target":34962
		},
		{
			"buffer":0,
			"byteLength":33168,
			"byteOffset":33168,
			"target":34962
		},
		{
			"buffer":0,
			"byteLength":22112,
			"byteOffset":66336,
			"target":34962
		},
		{
			"buffer":0,
			"byteLength":22112,
			"byteOffset":88448,
			"target":34962
		},
		{
			"buffer":0,
			"byteLength":22112,
			"byteOffset":110560,
			"target":34962
		},
		{
			"buffer":0,
			"byteLength":14946,
			"byteOffset":132672,
			"target":34963
		}
	],
	"samplers":[
		{
			"magFilter":9729,
			"minFilter":9987
		}
	],
	"buffers":[
		{
			"byteLength":147620,
			"uri":"chair.bin"
		}
	]
}
